<?xml version="1.0" encoding="UTF-8"?>
<svg id="Layer_1" xmlns="http://www.w3.org/2000/svg" viewBox="0 0 988 495">
  <defs>
    <style>
      .cls-1 {
        fill: none;
      }

      .cls-1, .cls-2 {
        stroke: #000;
        stroke-miterlimit: 10;
      }

      .cls-3 {
        fill: #fff;
      }
    </style>
  </defs>
  <polyline class="cls-1" points="247.8 .5 741.8 .5 741.8 494.5 247.8 494.5"/>
  <path d="M741.8.51c-.27-.01-.53-.01-.8-.01-133,0-241.45,105.13-246.79,236.8-.15,3.38-.21,6.78-.21,10.2s.06,6.81.21,10.2c5.34,131.68,113.78,236.8,246.79,236.8.27,0,.53,0,.8-.01,136.05-.43,246.2-110.85,246.2-246.99S877.85.94,741.8.51ZM576.33,250.88c0,3.76-3.04,6.81-6.8,6.81h-74.73v-20.39h74.73c3.76,0,6.8,3.05,6.8,6.81v6.77Z"/>
  <path d="M247,1.5c33.21,0,65.43,6.5,95.75,19.33,29.29,12.39,55.6,30.13,78.19,52.72,22.59,22.59,40.33,48.9,52.72,78.19,12.83,30.33,19.33,62.54,19.33,95.75s-6.5,65.43-19.33,95.75c-12.39,29.29-30.13,55.6-52.72,78.19-22.59,22.59-48.9,40.33-78.19,52.72-30.33,12.83-62.54,19.33-95.75,19.33s-65.43-6.5-95.75-19.33c-29.29-12.39-55.6-30.13-78.19-52.72-22.59-22.59-40.33-48.9-52.72-78.19C7.5,312.93,1,280.71,1,247.5s6.5-65.43,19.33-95.75c12.39-29.29,30.13-55.6,52.72-78.19,22.59-22.59,48.9-40.33,78.19-52.72C181.57,8,213.79,1.5,247,1.5M247,.5C110.59.5,0,111.09,0,247.5s110.59,247,247,247,247-110.59,247-247S383.41.5,247,.5h0Z"/>
  <line class="cls-1" x1="494" y1="82.83" x2="494" y2="407.89"/>
  <circle class="cls-2" cx="494" cy="82.83" r="4.8"/>
  <circle class="cls-1" cx="494" cy="412.17" r="4.8"/>
  <path class="cls-3" d="M494.8,237.3v20.39h-74.73c-3.76,0-6.81-3.05-6.81-6.81v-6.77c0-3.76,3.05-6.81,6.81-6.81h74.73Z"/>
  <path d="M494.8,237.3v20.39h-74.73c-3.76,0-6.81-3.05-6.81-6.81v-6.77c0-3.76,3.05-6.81,6.81-6.81h74.73Z"/>
</svg>