<?xml version="1.0" encoding="UTF-8"?>
<svg version="1.1" xmlns="http://www.w3.org/2000/svg" width="512" height="512">
<path d="M0 0 C4.39637814 3.5313052 8.55885496 7.26899241 12.66015625 11.13671875 C13.33691406 11.74902344 14.01367188 12.36132812 14.7109375 12.9921875 C21.03800489 18.93887008 25.77413125 26.00792817 30.66015625 33.13671875 C30.99015625 32.80671875 31.32015625 32.47671875 31.66015625 32.13671875 C34.3156163 32.03889645 36.94507075 32.00677513 39.60096741 32.01646423 C40.44099304 32.01560822 41.28101868 32.0147522 42.14649963 32.01387024 C44.9923001 32.01220474 47.83804273 32.01775531 50.68383789 32.02319336 C52.74649523 32.02349944 54.80915267 32.02336663 56.87180996 32.0228281 C62.41608231 32.02260152 67.96033325 32.02841459 73.50460052 32.03543854 C78.69931611 32.04111619 83.89402637 32.04140071 89.08874512 32.04211426 C104.30005168 32.04737017 119.51135423 32.0613312 134.72265625 32.07421875 C168.69203125 32.09484375 202.66140625 32.11546875 237.66015625 32.13671875 C237.66015625 100.11671875 237.66015625 168.09671875 237.66015625 238.13671875 C169.68015625 238.13671875 101.70015625 238.13671875 31.66015625 238.13671875 C31.33015625 221.96671875 31.00015625 205.79671875 30.66015625 189.13671875 C26.20515625 194.58171875 26.20515625 194.58171875 21.66015625 200.13671875 C7.73905901 215.37112705 -10.6981293 225.40420218 -30.33984375 231.13671875 C-31.02755859 231.34699707 -31.71527344 231.55727539 -32.42382812 231.77392578 C-63.43428547 240.93346919 -98.7969391 235.60596339 -126.90087891 220.37109375 C-153.79611527 205.11219278 -171.37368751 179.80408528 -179.73779297 150.35742188 C-185.68121749 128.4347173 -185.85876058 102.17979403 -180.33984375 80.13671875 C-180.09041016 79.09402832 -180.09041016 79.09402832 -179.8359375 78.03027344 C-174.23634901 55.18602634 -162.90045781 32.36049726 -142.30859375 19.7734375 C-127.05322421 11.3629114 -110.8414342 8.29740616 -93.83984375 12.76171875 C-77.60258287 18.13049049 -64.99407967 29.99754512 -57.08984375 45.01171875 C-51.15435306 57.64447433 -48.81746759 71.89392643 -52.46484375 85.63671875 C-57.3201016 98.74141932 -66.6715555 109.19037937 -79.33984375 115.13671875 C-87.19990535 118.23871098 -94.83945445 120.68932984 -103.33984375 121.13671875 C-103.18 120.13511719 -103.02015625 119.13351562 -102.85546875 118.1015625 C-99.4233401 91.71057329 -108.3314479 63.97890532 -124.08984375 42.76171875 C-126.53667435 39.84694589 -128.73242376 37.56070033 -132.33984375 36.13671875 C-135.04937926 35.88475746 -135.04937926 35.88475746 -137.33984375 36.13671875 C-148.10191077 55.32127301 -138.53941529 87.10779571 -133.25390625 106.91357422 C-124.91750839 136.30917372 -111.51197914 163.38335297 -92.33984375 187.13671875 C-91.70691406 187.93722656 -91.07398438 188.73773438 -90.421875 189.5625 C-79.39262013 202.80230914 -62.66455179 214.64267338 -45.33984375 217.13671875 C-33.46870308 218.21536858 -22.1842112 217.45865379 -12.08984375 210.44921875 C1.57277337 199.05425592 7.31091122 184.43414585 9.34765625 167.01171875 C9.4721472 165.38814932 9.57649402 163.76290334 9.66015625 162.13671875 C9.70140625 161.33492187 9.74265625 160.533125 9.78515625 159.70703125 C10.8028482 117.85444983 -7.01714408 71.5992214 -34.33984375 40.13671875 C-35.14421875 39.11578125 -35.14421875 39.11578125 -35.96484375 38.07421875 C-50.77672075 19.70749127 -73.9245818 9.07257347 -96.92578125 6.44921875 C-106.89625861 5.53658924 -116.44714735 6.86463839 -126.33984375 8.13671875 C-123.45579056 -0.51544081 -109.62674391 -6.76892443 -101.94604492 -10.80126953 C-69.08109006 -27.16173139 -29.00831841 -21.91275851 0 0 Z " fill="#EA1B23" transform="translate(230.33984375,147.86328125)"/>
<path d="M0 0 C4.39639296 3.53131711 8.55864945 7.26919052 12.66015625 11.13671875 C13.65789062 12.03777344 13.65789062 12.03777344 14.67578125 12.95703125 C16.59765625 14.76171875 16.59765625 14.76171875 18.39511108 16.71170044 C20.67207462 19.21763352 20.67207462 19.21763352 23.41177368 21.62545776 C34.30585173 32.63369521 33.24174982 46.93509007 33.17791474 61.39578378 C33.16549562 63.03939606 33.15209064 64.68300117 33.1377368 66.32659769 C33.10960224 70.56195567 33.135792 74.79706997 33.15298462 79.03244019 C33.17291194 86.13881145 33.1468485 93.24391895 33.09423828 100.35009766 C33.03433762 108.53489288 33.05381503 116.71667502 33.11432874 124.90139782 C33.1644401 131.96537467 33.17119983 139.02845087 33.14250338 146.09254825 C33.1254633 150.29571213 33.12275674 154.49746491 33.15940475 158.70053482 C33.19147394 162.65340564 33.16864288 166.60243649 33.10556793 170.55489731 C33.09117536 171.99423633 33.0949391 173.43390576 33.11945724 174.87310791 C33.28155368 185.36501105 30.62439357 190.96894493 23.55957985 198.28416252 C22.59580432 199.23775018 21.62929558 200.18858287 20.66015625 201.13671875 C19.64599554 202.16383602 18.63318922 203.19229268 17.62186241 204.22220039 C-3.909373 225.88404735 -34.58113338 235.3528472 -64.46484375 235.44921875 C-97.87432188 235.54041414 -127.51299501 224.82205743 -151.58984375 201.32421875 C-175.27556876 177.32699127 -183.78489087 144.80722421 -183.70999146 112.01211548 C-183.62568263 101.14444113 -182.9834994 90.69572919 -180.33984375 80.13671875 C-180.09041016 79.09402832 -180.09041016 79.09402832 -179.8359375 78.03027344 C-174.23634901 55.18602634 -162.90045781 32.36049726 -142.30859375 19.7734375 C-127.05322421 11.3629114 -110.8414342 8.29740616 -93.83984375 12.76171875 C-77.60258287 18.13049049 -64.99407967 29.99754512 -57.08984375 45.01171875 C-51.15435306 57.64447433 -48.81746759 71.89392643 -52.46484375 85.63671875 C-57.3201016 98.74141932 -66.6715555 109.19037937 -79.33984375 115.13671875 C-87.19990535 118.23871098 -94.83945445 120.68932984 -103.33984375 121.13671875 C-103.18 120.13511719 -103.02015625 119.13351562 -102.85546875 118.1015625 C-99.4233401 91.71057329 -108.3314479 63.97890532 -124.08984375 42.76171875 C-126.53667435 39.84694589 -128.73242376 37.56070033 -132.33984375 36.13671875 C-135.04937926 35.88475746 -135.04937926 35.88475746 -137.33984375 36.13671875 C-148.10191077 55.32127301 -138.53941529 87.10779571 -133.25390625 106.91357422 C-124.91750839 136.30917372 -111.51197914 163.38335297 -92.33984375 187.13671875 C-91.70691406 187.93722656 -91.07398438 188.73773438 -90.421875 189.5625 C-79.39262013 202.80230914 -62.66455179 214.64267338 -45.33984375 217.13671875 C-33.46870308 218.21536858 -22.1842112 217.45865379 -12.08984375 210.44921875 C1.57277337 199.05425592 7.31091122 184.43414585 9.34765625 167.01171875 C9.4721472 165.38814932 9.57649402 163.76290334 9.66015625 162.13671875 C9.70140625 161.33492187 9.74265625 160.533125 9.78515625 159.70703125 C10.8028482 117.85444983 -7.01714408 71.5992214 -34.33984375 40.13671875 C-35.14421875 39.11578125 -35.14421875 39.11578125 -35.96484375 38.07421875 C-50.77672075 19.70749127 -73.9245818 9.07257347 -96.92578125 6.44921875 C-106.89625861 5.53658924 -116.44714735 6.86463839 -126.33984375 8.13671875 C-123.45579056 -0.51544081 -109.62674391 -6.76892443 -101.94604492 -10.80126953 C-69.08109006 -27.16173139 -29.00831841 -21.91275851 0 0 Z " fill="#000000" transform="translate(230.33984375,147.86328125)"/>
<path d="M0 0 C31.35 0 62.7 0 95 0 C95 31.68 95 63.36 95 96 C63.65 96 32.3 96 0 96 C0 64.32 0 32.64 0 0 Z " fill="#060303" transform="translate(367,185)"/>
<path d="M0 0 C31.35 0 62.7 0 95 0 C95 31.02 95 62.04 95 94 C63.65 94 32.3 94 0 94 C0 62.98 0 31.96 0 0 Z " fill="#020101" transform="translate(267,286)"/>
<path d="M0 0 C4.56441536 0.68385321 6.98339413 3.58576309 10.0859375 6.7578125 C10.66534088 7.33908905 11.24474426 7.9203656 11.84170532 8.51925659 C13.06726237 9.75153309 14.28921766 10.98740066 15.5078125 12.2265625 C17.35439092 14.104046 19.21118597 15.97088704 21.0703125 17.8359375 C22.26364081 19.03844757 23.45636816 20.24155438 24.6484375 21.4453125 C25.19551361 21.99663849 25.74258972 22.54796448 26.3062439 23.11599731 C30.0741731 26.95259267 33.48207278 30.89575158 37 35 C37.33 23.78 37.66 12.56 38 1 C39.32 0.67 40.64 0.34 42 0 C43 1 43 1 43.11352539 4.96899414 C43.1133662 6.74105607 43.10766785 8.5131226 43.09765625 10.28515625 C43.0962413 11.21597519 43.09482635 12.14679413 43.09336853 13.1058197 C43.08775172 16.09141191 43.0751964 19.07693029 43.0625 22.0625 C43.05748716 24.08137913 43.05292388 26.10025943 43.04882812 28.11914062 C43.03777683 33.07945572 43.02050095 38.03971532 43 43 C41.22344971 43.68797302 41.22344971 43.68797302 39 44 C37.22821045 42.82948303 37.22821045 42.82948303 35.42480469 40.99243164 C34.73499512 40.30201782 34.04518555 39.611604 33.33447266 38.90026855 C32.62081543 38.16103149 31.9071582 37.42179443 31.171875 36.66015625 C30.17534912 35.65607727 30.17534912 35.65607727 29.15869141 34.63171387 C26.67536707 32.12218516 24.21399676 29.59100826 21.75 27.0625 C16.2225 21.431875 10.695 15.80125 5 10 C4.67 29.14 4.34 48.28 4 68 C2.02 68.495 2.02 68.495 0 69 C-1.83683222 67.16316778 -1.12774193 64.21344528 -1.12939453 61.75195312 C-1.13114685 61.09992416 -1.13289917 60.4478952 -1.13470459 59.77610779 C-1.13912204 57.61112847 -1.13618551 55.44623021 -1.1328125 53.28125 C-1.13348557 51.78291813 -1.13445562 50.28458637 -1.13571167 48.78625488 C-1.1371885 45.64216067 -1.13503458 42.49809483 -1.13037109 39.35400391 C-1.1246738 35.31513461 -1.12795289 31.27633176 -1.13394356 27.2374649 C-1.13754958 24.1423492 -1.13641039 21.04724935 -1.13381577 17.95213318 C-1.13314661 16.46251925 -1.13397452 14.9729039 -1.13629532 13.48329163 C-1.13882253 11.40483765 -1.13498033 9.32649269 -1.12939453 7.24804688 C-1.12859894 6.06303589 -1.12780334 4.8780249 -1.12698364 3.65710449 C-1 1 -1 1 0 0 Z " fill="#F4F4F4" transform="translate(389,198)"/>
<path d="M0 0 C4.56441536 0.68385321 6.98339413 3.58576309 10.0859375 6.7578125 C10.66534088 7.33908905 11.24474426 7.9203656 11.84170532 8.51925659 C13.06726237 9.75153309 14.28921766 10.98740066 15.5078125 12.2265625 C17.35439092 14.104046 19.21118597 15.97088704 21.0703125 17.8359375 C22.26364081 19.03844757 23.45636816 20.24155438 24.6484375 21.4453125 C25.19551361 21.99663849 25.74258972 22.54796448 26.3062439 23.11599731 C30.0741731 26.95259267 33.48207278 30.89575158 37 35 C37.33 23.78 37.66 12.56 38 1 C39.32 0.67 40.64 0.34 42 0 C43 1 43 1 43.11352539 4.96899414 C43.1133662 6.74105607 43.10766785 8.5131226 43.09765625 10.28515625 C43.0962413 11.21597519 43.09482635 12.14679413 43.09336853 13.1058197 C43.08775172 16.09141191 43.0751964 19.07693029 43.0625 22.0625 C43.05748716 24.08137913 43.05292388 26.10025943 43.04882812 28.11914062 C43.03777683 33.07945572 43.02050095 38.03971532 43 43 C41.22344971 43.68797302 41.22344971 43.68797302 39 44 C37.22821045 42.82948303 37.22821045 42.82948303 35.42480469 40.99243164 C34.73499512 40.30201782 34.04518555 39.611604 33.33447266 38.90026855 C32.62081543 38.16103149 31.9071582 37.42179443 31.171875 36.66015625 C30.17534912 35.65607727 30.17534912 35.65607727 29.15869141 34.63171387 C26.67536707 32.12218516 24.21399676 29.59100826 21.75 27.0625 C16.2225 21.431875 10.695 15.80125 5 10 C4.67 29.14 4.34 48.28 4 68 C2.02 68.495 2.02 68.495 0 69 C-1.83683222 67.16316778 -1.12774193 64.21344528 -1.12939453 61.75195312 C-1.13114685 61.09992416 -1.13289917 60.4478952 -1.13470459 59.77610779 C-1.13912204 57.61112847 -1.13618551 55.44623021 -1.1328125 53.28125 C-1.13348557 51.78291813 -1.13445562 50.28458637 -1.13571167 48.78625488 C-1.1371885 45.64216067 -1.13503458 42.49809483 -1.13037109 39.35400391 C-1.1246738 35.31513461 -1.12795289 31.27633176 -1.13394356 27.2374649 C-1.13754958 24.1423492 -1.13641039 21.04724935 -1.13381577 17.95213318 C-1.13314661 16.46251925 -1.13397452 14.9729039 -1.13629532 13.48329163 C-1.13882253 11.40483765 -1.13498033 9.32649269 -1.12939453 7.24804688 C-1.12859894 6.06303589 -1.12780334 4.8780249 -1.12698364 3.65710449 C-1 1 -1 1 0 0 Z " fill="#0A0101" transform="translate(289,198)"/>
<path d="M0 0 C1.32 0.33 2.64 0.66 4 1 C4 23.11 4 45.22 4 68 C2.02 68.495 2.02 68.495 0 69 C-1.7583313 67.83621216 -1.7583313 67.83621216 -3.54345703 66.00830078 C-4.21740509 65.33074738 -4.89135315 64.65319397 -5.58572388 63.95510864 C-6.30251312 63.20937592 -7.01930237 62.46364319 -7.7578125 61.6953125 C-8.87420609 60.5647493 -8.87420609 60.5647493 -10.01315308 59.41134644 C-12.3957793 56.99403133 -14.76073036 54.56026008 -17.125 52.125 C-19.49974173 49.70037479 -21.87794109 47.27921631 -24.25827026 44.8600769 C-25.74026032 43.35158863 -27.21833478 41.83924199 -28.69216919 40.32278442 C-29.35981293 39.6389267 -30.02745667 38.95506897 -30.71533203 38.25048828 C-31.30283234 37.64568634 -31.89033264 37.0408844 -32.49563599 36.41775513 C-33.96306095 34.89847652 -33.96306095 34.89847652 -36 34 C-36 45.55 -36 57.1 -36 69 C-37.32 68.67 -38.64 68.34 -40 68 C-40 54.14 -40 40.28 -40 26 C-38.68 25.67 -37.36 25.34 -36 25 C-34.26617432 26.11909485 -34.26617432 26.11909485 -32.51660156 27.8840332 C-31.85621887 28.53833817 -31.19583618 29.19264313 -30.51544189 29.86677551 C-29.81425232 30.58749741 -29.11306274 31.3082193 -28.390625 32.05078125 C-27.66381531 32.77992233 -26.93700562 33.50906342 -26.18817139 34.26029968 C-24.65259022 35.80563434 -23.12305305 37.35699463 -21.59912109 38.91381836 C-19.2578399 41.3044947 -16.89842183 43.67599548 -14.53515625 46.04492188 C-13.04837824 47.54578521 -11.56266419 49.04770341 -10.078125 50.55078125 C-9.3688385 51.26543045 -8.659552 51.98007965 -7.92877197 52.71638489 C-7.28099792 53.38014633 -6.63322388 54.04390778 -5.96582031 54.7277832 C-5.39164368 55.31259964 -4.81746704 55.89741608 -4.22589111 56.49995422 C-3 58 -3 58 -3 60 C-2.34 60 -1.68 60 -1 60 C-1.00222061 59.26306412 -1.00444122 58.52612823 -1.00672913 57.76686096 C-1.02673203 50.83587231 -1.04197413 43.90488796 -1.05181217 36.97387791 C-1.05703995 33.41022578 -1.06413569 29.84659743 -1.07543945 26.28295898 C-1.08834176 22.18993903 -1.09322906 18.0969442 -1.09765625 14.00390625 C-1.10281754 12.71851456 -1.10797882 11.43312286 -1.11329651 10.10877991 C-1.11337204 8.92763107 -1.11344757 7.74648224 -1.11352539 6.52954102 C-1.115746 5.48363297 -1.11796661 4.43772491 -1.12025452 3.36012268 C-1 1 -1 1 0 0 Z " fill="#F0F0F0" transform="translate(438,198)"/>
<path d="M0 0 C1.32 0.33 2.64 0.66 4 1 C4 23.11 4 45.22 4 68 C2.02 68.495 2.02 68.495 0 69 C-1.7583313 67.83621216 -1.7583313 67.83621216 -3.54345703 66.00830078 C-4.21740509 65.33074738 -4.89135315 64.65319397 -5.58572388 63.95510864 C-6.30251312 63.20937592 -7.01930237 62.46364319 -7.7578125 61.6953125 C-8.87420609 60.5647493 -8.87420609 60.5647493 -10.01315308 59.41134644 C-12.3957793 56.99403133 -14.76073036 54.56026008 -17.125 52.125 C-19.49974173 49.70037479 -21.87794109 47.27921631 -24.25827026 44.8600769 C-25.74026032 43.35158863 -27.21833478 41.83924199 -28.69216919 40.32278442 C-29.35981293 39.6389267 -30.02745667 38.95506897 -30.71533203 38.25048828 C-31.30283234 37.64568634 -31.89033264 37.0408844 -32.49563599 36.41775513 C-33.96306095 34.89847652 -33.96306095 34.89847652 -36 34 C-36 45.55 -36 57.1 -36 69 C-37.32 68.67 -38.64 68.34 -40 68 C-40 54.14 -40 40.28 -40 26 C-38.68 25.67 -37.36 25.34 -36 25 C-34.26617432 26.11909485 -34.26617432 26.11909485 -32.51660156 27.8840332 C-31.85621887 28.53833817 -31.19583618 29.19264313 -30.51544189 29.86677551 C-29.81425232 30.58749741 -29.11306274 31.3082193 -28.390625 32.05078125 C-27.66381531 32.77992233 -26.93700562 33.50906342 -26.18817139 34.26029968 C-24.65259022 35.80563434 -23.12305305 37.35699463 -21.59912109 38.91381836 C-19.2578399 41.3044947 -16.89842183 43.67599548 -14.53515625 46.04492188 C-13.04837824 47.54578521 -11.56266419 49.04770341 -10.078125 50.55078125 C-9.3688385 51.26543045 -8.659552 51.98007965 -7.92877197 52.71638489 C-7.28099792 53.38014633 -6.63322388 54.04390778 -5.96582031 54.7277832 C-5.39164368 55.31259964 -4.81746704 55.89741608 -4.22589111 56.49995422 C-3 58 -3 58 -3 60 C-2.34 60 -1.68 60 -1 60 C-1.00222061 59.26306412 -1.00444122 58.52612823 -1.00672913 57.76686096 C-1.02673203 50.83587231 -1.04197413 43.90488796 -1.05181217 36.97387791 C-1.05703995 33.41022578 -1.06413569 29.84659743 -1.07543945 26.28295898 C-1.08834176 22.18993903 -1.09322906 18.0969442 -1.09765625 14.00390625 C-1.10281754 12.71851456 -1.10797882 11.43312286 -1.11329651 10.10877991 C-1.11337204 8.92763107 -1.11344757 7.74648224 -1.11352539 6.52954102 C-1.115746 5.48363297 -1.11796661 4.43772491 -1.12025452 3.36012268 C-1 1 -1 1 0 0 Z " fill="#0D0101" transform="translate(338,198)"/>
<path d="M0 0 C1.77206192 0.00015919 3.54412846 0.00585754 5.31616211 0.01586914 C6.24698105 0.01728409 7.17779999 0.01869904 8.13682556 0.02015686 C11.12241777 0.02577367 14.10793615 0.03832899 17.09350586 0.05102539 C19.11238499 0.05603823 21.13126529 0.06060151 23.15014648 0.06469727 C28.11046158 0.07574856 33.07072118 0.09302444 38.03100586 0.11352539 C38.59350586 2.05102539 38.59350586 2.05102539 39.03100586 4.11352539 C38.03100586 5.11352539 38.03100586 5.11352539 34.42919922 5.22705078 C32.82640731 5.22679968 31.22360999 5.22123799 29.62084961 5.21118164 C28.87484497 5.21017456 28.12884033 5.20916748 27.36022949 5.20812988 C24.56297273 5.20288228 21.76573782 5.18892112 18.96850586 5.17602539 C12.71913086 5.15540039 6.46975586 5.13477539 0.03100586 5.11352539 C0.03100586 25.90352539 0.03100586 46.69352539 0.03100586 68.11352539 C-1.94899414 68.60852539 -1.94899414 68.60852539 -3.96899414 69.11352539 C-5.80582636 67.27669317 -5.09673607 64.32697067 -5.09838867 61.86547852 C-5.10014099 61.21344955 -5.10189331 60.56142059 -5.10369873 59.88963318 C-5.10811618 57.72465386 -5.10517966 55.5597556 -5.10180664 53.39477539 C-5.10247971 51.89644352 -5.10344976 50.39811176 -5.10470581 48.89978027 C-5.10618264 45.75568607 -5.10402872 42.61162022 -5.09936523 39.4675293 C-5.09366795 35.42866 -5.09694703 31.38985715 -5.1029377 27.3509903 C-5.10654372 24.25587459 -5.10540454 21.16077474 -5.10280991 18.06565857 C-5.10214075 16.57604464 -5.10296866 15.08642929 -5.10528946 13.59681702 C-5.10781667 11.51836304 -5.10397447 9.44001808 -5.09838867 7.36157227 C-5.09759308 6.17656128 -5.09679749 4.99155029 -5.09597778 3.77062988 C-4.89280006 -0.48081887 -4.48856008 0.12838657 0 0 Z " fill="#080001" transform="translate(397.968994140625,297.886474609375)"/>
<path d="M0 0 C1.77206192 0.00015919 3.54412846 0.00585754 5.31616211 0.01586914 C6.24698105 0.01728409 7.17779999 0.01869904 8.13682556 0.02015686 C11.12241777 0.02577367 14.10793615 0.03832899 17.09350586 0.05102539 C19.11238499 0.05603823 21.13126529 0.06060151 23.15014648 0.06469727 C28.11046158 0.07574856 33.07072118 0.09302444 38.03100586 0.11352539 C38.59350586 2.05102539 38.59350586 2.05102539 39.03100586 4.11352539 C38.03100586 5.11352539 38.03100586 5.11352539 34.42919922 5.22705078 C32.82640731 5.22679968 31.22360999 5.22123799 29.62084961 5.21118164 C28.87484497 5.21017456 28.12884033 5.20916748 27.36022949 5.20812988 C24.56297273 5.20288228 21.76573782 5.18892112 18.96850586 5.17602539 C12.71913086 5.15540039 6.46975586 5.13477539 0.03100586 5.11352539 C0.03100586 25.90352539 0.03100586 46.69352539 0.03100586 68.11352539 C-1.94899414 68.60852539 -1.94899414 68.60852539 -3.96899414 69.11352539 C-5.80582636 67.27669317 -5.09673607 64.32697067 -5.09838867 61.86547852 C-5.10014099 61.21344955 -5.10189331 60.56142059 -5.10369873 59.88963318 C-5.10811618 57.72465386 -5.10517966 55.5597556 -5.10180664 53.39477539 C-5.10247971 51.89644352 -5.10344976 50.39811176 -5.10470581 48.89978027 C-5.10618264 45.75568607 -5.10402872 42.61162022 -5.09936523 39.4675293 C-5.09366795 35.42866 -5.09694703 31.38985715 -5.1029377 27.3509903 C-5.10654372 24.25587459 -5.10540454 21.16077474 -5.10280991 18.06565857 C-5.10214075 16.57604464 -5.10296866 15.08642929 -5.10528946 13.59681702 C-5.10781667 11.51836304 -5.10397447 9.44001808 -5.09838867 7.36157227 C-5.09759308 6.17656128 -5.09679749 4.99155029 -5.09597778 3.77062988 C-4.89280006 -0.48081887 -4.48856008 0.12838657 0 0 Z " fill="#F5F5F5" transform="translate(297.968994140625,297.886474609375)"/>
<path d="M0 0 C1.34888732 0.00015905 2.69778075 0.00584927 4.04663086 0.01586914 C5.10991859 0.01799156 5.10991859 0.01799156 6.19468689 0.02015686 C8.46699173 0.02577096 10.73919936 0.03832576 13.01147461 0.05102539 C14.54858257 0.05603858 16.08569206 0.0606018 17.62280273 0.06469727 C21.39823103 0.07574497 25.17358632 0.09301898 28.94897461 0.11352539 C29.51147461 2.05102539 29.51147461 2.05102539 29.94897461 4.11352539 C28.94897461 5.11352539 28.94897461 5.11352539 26.17333984 5.22705078 C24.96363525 5.22181396 23.75393066 5.21657715 22.50756836 5.21118164 C21.20239258 5.20795898 19.8972168 5.20473633 18.55249023 5.20141602 C17.16381771 5.1930594 15.77514584 5.18459444 14.38647461 5.17602539 C12.99389805 5.17101205 11.60131979 5.16644886 10.20874023 5.16235352 C6.78877591 5.15051973 3.36889617 5.13403419 -0.05102539 5.11352539 C-0.05102539 9.07352539 -0.05102539 13.03352539 -0.05102539 17.11352539 C9.51897461 17.11352539 19.08897461 17.11352539 28.94897461 17.11352539 C29.44397461 19.09352539 29.44397461 19.09352539 29.94897461 21.11352539 C28.27223812 22.79026188 26.22042385 22.24140356 23.98242188 22.25247192 C23.29075928 22.25044769 22.59909668 22.24842346 21.88647461 22.24633789 C21.17998779 22.24729462 20.47350098 22.24825134 19.74560547 22.24923706 C18.24926667 22.24991872 16.75292494 22.24806544 15.2565918 22.24389648 C12.95867304 22.23854796 10.66094975 22.2438419 8.36303711 22.25024414 C6.91251584 22.24958336 5.4619947 22.24830219 4.01147461 22.24633789 C2.97398071 22.24937424 2.97398071 22.24937424 1.91552734 22.25247192 C-2.93607315 22.22847763 -2.93607315 22.22847763 -4.05102539 21.11352539 C-4.14983336 19.63699875 -4.18181785 18.15585303 -4.18383789 16.67602539 C-4.18512695 15.78141602 -4.18641602 14.88680664 -4.18774414 13.96508789 C-4.18194336 12.55356445 -4.18194336 12.55356445 -4.17602539 11.11352539 C-4.17989258 10.17250977 -4.18375977 9.23149414 -4.18774414 8.26196289 C-4.18645508 7.36735352 -4.18516602 6.47274414 -4.18383789 5.55102539 C-4.182146 4.3115918 -4.182146 4.3115918 -4.18041992 3.04711914 C-3.96296512 -0.20239412 -3.32147021 0.12358835 0 0 Z " fill="#010000" transform="translate(407.051025390625,307.886474609375)"/>
<path d="M0 0 C1.34888732 0.00015905 2.69778075 0.00584927 4.04663086 0.01586914 C5.10991859 0.01799156 5.10991859 0.01799156 6.19468689 0.02015686 C8.46699173 0.02577096 10.73919936 0.03832576 13.01147461 0.05102539 C14.54858257 0.05603858 16.08569206 0.0606018 17.62280273 0.06469727 C21.39823103 0.07574497 25.17358632 0.09301898 28.94897461 0.11352539 C29.51147461 2.05102539 29.51147461 2.05102539 29.94897461 4.11352539 C28.94897461 5.11352539 28.94897461 5.11352539 26.17333984 5.22705078 C24.96363525 5.22181396 23.75393066 5.21657715 22.50756836 5.21118164 C21.20239258 5.20795898 19.8972168 5.20473633 18.55249023 5.20141602 C17.16381771 5.1930594 15.77514584 5.18459444 14.38647461 5.17602539 C12.99389805 5.17101205 11.60131979 5.16644886 10.20874023 5.16235352 C6.78877591 5.15051973 3.36889617 5.13403419 -0.05102539 5.11352539 C-0.05102539 9.07352539 -0.05102539 13.03352539 -0.05102539 17.11352539 C9.51897461 17.11352539 19.08897461 17.11352539 28.94897461 17.11352539 C29.44397461 19.09352539 29.44397461 19.09352539 29.94897461 21.11352539 C28.27223812 22.79026188 26.22042385 22.24140356 23.98242188 22.25247192 C23.29075928 22.25044769 22.59909668 22.24842346 21.88647461 22.24633789 C21.17998779 22.24729462 20.47350098 22.24825134 19.74560547 22.24923706 C18.24926667 22.24991872 16.75292494 22.24806544 15.2565918 22.24389648 C12.95867304 22.23854796 10.66094975 22.2438419 8.36303711 22.25024414 C6.91251584 22.24958336 5.4619947 22.24830219 4.01147461 22.24633789 C2.97398071 22.24937424 2.97398071 22.24937424 1.91552734 22.25247192 C-2.93607315 22.22847763 -2.93607315 22.22847763 -4.05102539 21.11352539 C-4.14983336 19.63699875 -4.18181785 18.15585303 -4.18383789 16.67602539 C-4.18512695 15.78141602 -4.18641602 14.88680664 -4.18774414 13.96508789 C-4.18194336 12.55356445 -4.18194336 12.55356445 -4.17602539 11.11352539 C-4.17989258 10.17250977 -4.18375977 9.23149414 -4.18774414 8.26196289 C-4.18645508 7.36735352 -4.18516602 6.47274414 -4.18383789 5.55102539 C-4.182146 4.3115918 -4.182146 4.3115918 -4.18041992 3.04711914 C-3.96296512 -0.20239412 -3.32147021 0.12358835 0 0 Z " fill="#FCFCFC" transform="translate(307.051025390625,307.886474609375)"/>
<path d="M0 0 C1.34888732 0.00015905 2.69778075 0.00584927 4.04663086 0.01586914 C5.10991859 0.01799156 5.10991859 0.01799156 6.19468689 0.02015686 C8.46699173 0.02577096 10.73919936 0.03832576 13.01147461 0.05102539 C14.54858257 0.05603858 16.08569206 0.0606018 17.62280273 0.06469727 C21.39823103 0.07574497 25.17358632 0.09301898 28.94897461 0.11352539 C29.51147461 2.05102539 29.51147461 2.05102539 29.94897461 4.11352539 C28.94897461 5.11352539 28.94897461 5.11352539 26.17333984 5.22705078 C24.96363525 5.22181396 23.75393066 5.21657715 22.50756836 5.21118164 C21.20239258 5.20795898 19.8972168 5.20473633 18.55249023 5.20141602 C17.16381771 5.1930594 15.77514584 5.18459444 14.38647461 5.17602539 C12.99389805 5.17101205 11.60131979 5.16644886 10.20874023 5.16235352 C6.7888001 5.15051981 3.36888211 5.1325837 -0.05102539 5.11352539 C-0.05102539 14.02352539 -0.05102539 22.93352539 -0.05102539 32.11352539 C-1.37102539 31.78352539 -2.69102539 31.45352539 -4.05102539 31.11352539 C-4.07568161 26.85937916 -4.09386438 22.60527041 -4.10595703 18.35107422 C-4.1109964 16.90282467 -4.11782792 15.45458022 -4.12646484 14.00634766 C-4.13854786 11.92877951 -4.1442575 9.85127842 -4.14868164 7.77368164 C-4.15391846 6.52208252 -4.15915527 5.2704834 -4.16455078 3.98095703 C-4.00780619 0.02189215 -3.98682055 0.14834533 0 0 Z " fill="#010000" transform="translate(407.051025390625,334.886474609375)"/>
<path d="M0 0 C1.34888732 0.00015905 2.69778075 0.00584927 4.04663086 0.01586914 C5.10991859 0.01799156 5.10991859 0.01799156 6.19468689 0.02015686 C8.46699173 0.02577096 10.73919936 0.03832576 13.01147461 0.05102539 C14.54858257 0.05603858 16.08569206 0.0606018 17.62280273 0.06469727 C21.39823103 0.07574497 25.17358632 0.09301898 28.94897461 0.11352539 C29.51147461 2.05102539 29.51147461 2.05102539 29.94897461 4.11352539 C28.94897461 5.11352539 28.94897461 5.11352539 26.17333984 5.22705078 C24.96363525 5.22181396 23.75393066 5.21657715 22.50756836 5.21118164 C21.20239258 5.20795898 19.8972168 5.20473633 18.55249023 5.20141602 C17.16381771 5.1930594 15.77514584 5.18459444 14.38647461 5.17602539 C12.99389805 5.17101205 11.60131979 5.16644886 10.20874023 5.16235352 C6.7888001 5.15051981 3.36888211 5.1325837 -0.05102539 5.11352539 C-0.05102539 14.02352539 -0.05102539 22.93352539 -0.05102539 32.11352539 C-1.37102539 31.78352539 -2.69102539 31.45352539 -4.05102539 31.11352539 C-4.07568161 26.85937916 -4.09386438 22.60527041 -4.10595703 18.35107422 C-4.1109964 16.90282467 -4.11782792 15.45458022 -4.12646484 14.00634766 C-4.13854786 11.92877951 -4.1442575 9.85127842 -4.14868164 7.77368164 C-4.15391846 6.52208252 -4.15915527 5.2704834 -4.16455078 3.98095703 C-4.00780619 0.02189215 -3.98682055 0.14834533 0 0 Z " fill="#FDFDFD" transform="translate(307.051025390625,334.886474609375)"/>
</svg>
