<?xml version="1.0" encoding="UTF-8"?>
<svg id="Layer_1" xmlns="http://www.w3.org/2000/svg" viewBox="0 0 1080 1080">
  <defs>
    <style>
      .cls-1 {
        fill: none;
      }

      .cls-1, .cls-2 {
        stroke: #000;
        stroke-miterlimit: 10;
      }
    </style>
  </defs>
  <path d="M959.84,120.84v838.32H121.52V120.84h838.32M539.68,558.35h122.37c10.1,0,18.32-8.23,18.32-18.35,0-4.91-1.9-9.52-5.35-12.97-3.5-3.47-8.1-5.38-12.97-5.38h-122.37v36.7M960.84,119.84H120.52v840.32h840.32V119.84h0ZM540.68,557.35v-34.7h121.37c4.79,0,9.11,1.96,12.26,5.09,3.13,3.13,5.06,7.48,5.06,12.26,0,9.57-7.75,17.35-17.32,17.35h-121.37Z"/>
  <path d="M959.48,119.84c-226.23,0-410.69,178.81-419.8,402.81-.24,5.74-.35,11.53-.35,17.35s.11,11.61.35,17.35c9.11,224,193.57,402.81,419.8,402.81h1.36V119.84h-1.36ZM662.05,557.35h-121.37v-34.7h121.37c4.79,0,9.11,1.96,12.26,5.09,3.13,3.13,5.06,7.48,5.06,12.26,0,9.57-7.75,17.35-17.32,17.35Z"/>
  <g>
    <path d="M120.52,120.84c108.66.34,211.56,42.09,289.73,117.55,38.04,36.72,68.43,79.63,90.32,127.52,22.6,49.43,35.18,102.18,37.4,156.78.23,5.48.35,11.31.35,17.31s-.12,11.82-.35,17.31c-2.22,54.6-14.8,107.35-37.4,156.78-21.89,47.89-52.28,90.79-90.32,127.52-78.17,75.46-181.06,117.21-289.72,117.55h-.36V120.84h.36M120.52,119.84h-1.36v840.32h1.36c225.61-.71,409.36-179.24,418.45-402.81.24-5.74.35-11.53.35-17.35s-.11-11.61-.35-17.35c-9.08-223.57-192.84-402.1-418.45-402.81h0Z"/>
    <line class="cls-1" x1="119.16" y1="960.16" x2="119.16" y2="119.84"/>
  </g>
  <line class="cls-1" x1="539.32" y1="259.89" x2="539.32" y2="811.95"/>
  <circle class="cls-2" cx="539.32" cy="259.89" r="8.16"/>
  <circle class="cls-1" cx="539.32" cy="820.11" r="8.16"/>
  <path d="M539.68,523.65v32.7h-120.37c-4.34,0-8.44-1.7-11.56-4.79-3.07-3.07-4.77-7.18-4.77-11.56,0-9.02,7.32-16.35,16.32-16.35h120.37M540.68,522.65h-121.37c-9.57,0-17.32,7.78-17.32,17.35,0,4.79,1.93,9.14,5.06,12.26,3.15,3.13,7.48,5.09,12.26,5.09h121.37v-34.7h0Z"/>
  <path d="M540.68,522.65v34.7h-121.37c-4.79,0-9.11-1.96-12.26-5.09-3.13-3.13-5.06-7.48-5.06-12.26,0-9.57,7.75-17.35,17.32-17.35h121.37Z"/>
</svg>